<svg xmlns="http://www.w3.org/2000/svg" viewBox="0 0 100 100">
  <!-- Crème achtergrond (lichte variant) -->
  <rect width="100" height="100" fill="#f9f7f4"/>

  <!-- Vette U letter -->
  <path d="
    M20 44
    L20 71
    C20 92 80 92 80 71
    L80 44
    L64 44
    L64 69
    C64 79 36 79 36 69
    L36 44
    Z
  " fill="#111111"/>

  <!-- Rood hartje — onderpunt zit in het gat van de U -->
  <g transform="translate(21,8) scale(1.8)">
    <path d="M16 27.5C2.7 18.6 0 13.3 0 8.4 0 3.7 3.7 0 8.4 0c2.9 0 5.6 1.5 7.6 4 2-2.5 4.7-4 7.6-4C28.3 0 32 3.7 32 8.4c0 4.9-2.7 10.2-16 19.1z" fill="#d62e39"/>
  </g>
</svg>
